<?xml version="1.0" standalone="no"?><!DOCTYPE svg PUBLIC "-//W3C//DTD SVG 1.1//EN" "http://www.w3.org/Graphics/SVG/1.1/DTD/svg11.dtd"><svg t="1601903713513" class="icon" viewBox="0 0 1024 1024" version="1.1" xmlns="http://www.w3.org/2000/svg" p-id="3530" xmlns:xlink="http://www.w3.org/1999/xlink" width="200" height="200"><defs><style type="text/css"></style></defs><path d="M207.625 347.583v117.084c0 25.758 21.037 46.833 46.75 46.833 25.712 0 46.75-21.075 46.75-46.833V347.583H418c25.712 0 46.75-21.075 46.75-46.833s-21.038-46.833-46.75-46.833H301.125V136.833c0-25.758-21.038-46.833-46.75-46.833-25.713 0-46.75 21.075-46.75 46.833v117.084H90.75c-25.712 0-46.75 21.075-46.75 46.833s21.038 46.833 46.75 46.833h116.875zM605 605.167c-25.712 0-46.75 21.075-46.75 46.833s21.038 46.833 46.75 46.833h327.25c25.712 0 46.75-21.075 46.75-46.833s-21.038-46.833-46.75-46.833H605zM918.225 104.05c-18.7-18.733-46.75-18.733-65.45 0l-748 749.333c-18.7 18.734-18.7 46.834 0 65.567 18.7 18.733 46.75 18.733 65.45 0l748-749.333c18.7-18.734 18.7-49.175 0-65.567zM932.25 792.5H605c-25.712 0-46.75 21.075-46.75 46.833 0 25.759 21.038 46.834 46.75 46.834h327.25c25.712 0 46.75-21.075 46.75-46.834 0-25.758-21.037-46.833-46.75-46.833z" p-id="3531" fill="#707070"></path></svg>